<svg xmlns="http://www.w3.org/2000/svg" width="146" height="55" viewBox="0 0 146 55" fill="none">
  <g clip-path="url(#clip0_839_4707)">
    <path d="M92.81 43.42C90.33 43.42 87.93 43.48 85.54 43.37C85.09 43.35 84.57 42.76 84.26 42.31C81.73 38.59 79.23 34.84 76.73 31.11C76.51 30.79 76.28 30.48 75.96 30.03C74.5 31.7 73.1 33.28 71.76 34.91C71.53 35.2 71.53 35.73 71.53 36.14C71.51 38.51 71.53 40.87 71.53 43.35H64.9V12.2H71.59V26C71.74 26.11 71.9 26.22 72.05 26.34C72.26 25.97 72.42 25.55 72.69 25.24C76.29 21.1 79.91 16.97 83.54 12.86C83.83 12.54 84.3 12.19 84.69 12.18C87.09 12.12 89.49 12.15 92.18 12.15C91.64 12.75 91.26 13.17 90.89 13.59C87.64 17.25 84.4 20.93 81.14 24.58C80.72 25.05 80.72 25.38 81.08 25.91C84.96 31.58 88.8 37.27 92.65 42.96C92.73 43.08 92.75 43.23 92.82 43.45L92.81 43.42Z" fill="black"/>
    <path d="M128.05 35.76C127.77 37.52 127.05 38.85 126.08 40.06C121.72 45.54 109.95 44.99 106.41 38.18C103.46 32.5 105.16 24.94 110.31 21.8C115.27 18.78 122.98 19.98 126.28 24.32C128.11 26.73 128.58 29.55 128.51 32.49C128.49 33.13 128.18 33.46 127.46 33.46C122.52 33.42 117.58 33.44 112.64 33.37C111.66 33.36 111.37 33.58 111.57 34.57C112.37 38.51 117.02 40.42 120.37 38.12C120.81 37.82 121.28 37.37 121.42 36.89C121.71 35.9 122.35 35.75 123.2 35.75C124.77 35.76 126.34 35.75 128.03 35.75L128.05 35.76ZM122.16 29.16C121.53 25.99 119.14 24.45 115.76 24.93C113.38 25.26 111.7 27.06 111.85 29.22C114.99 29.22 118.13 29.22 121.28 29.22C121.55 29.22 121.82 29.19 122.16 29.16Z" fill="black"/>
    <path d="M0.0200076 27.3C0.0200076 21.57 7.59214e-06 15.84 0.0200076 10.11C0.0300076 4.4 4.32001 0.05 10.05 0.03C21.63 -0.01 33.22 -0.01 44.8 0.03C50.24 0.05 54.57 4.45 54.58 9.86C54.59 21.48 54.59 33.09 54.58 44.71C54.58 50.15 50.26 54.53 44.8 54.54C33.14 54.58 21.47 54.57 9.81001 54.54C4.47001 54.52 0.120008 50.28 0.0500076 44.95C-0.0299924 39.06 0.0300076 33.18 0.0300076 27.29L0.0200076 27.3ZM27.21 53.2V53.17C29.62 53.17 32.03 53.17 34.45 53.17C38.29 53.17 42.12 53.26 45.96 53.13C49.91 52.99 53.17 49.67 53.19 45.75C53.26 33.7 53.25 21.65 53.23 9.59C53.23 8.59 53.07 7.51 52.7 6.59C51.33 3.23 48.84 1.41 45.12 1.41C35.47 1.41 25.82 1.41 16.17 1.41C13.8 1.41 11.42 1.37 9.05001 1.43C4.93001 1.55 1.70001 4.65 1.47001 8.75C1.35001 10.8 1.39001 12.86 1.39001 14.91C1.39001 24.87 1.49001 34.83 1.36001 44.78C1.30001 49.17 4.85001 53.42 10.01 53.24C15.74 53.04 21.48 53.19 27.21 53.19V53.2Z" fill="black"/>
    <path d="M139.92 43.4H133.66V25.75C132.58 25.75 131.64 25.7 130.71 25.77C130.01 25.82 129.79 25.59 129.8 24.92C129.83 23.78 129.85 22.63 129.8 21.48C129.77 20.7 130.04 20.41 130.82 20.46C131.71 20.51 132.61 20.47 133.54 20.47C133.63 19.2 133.62 17.93 133.84 16.71C134.27 14.26 135.78 12.68 138.22 12.39C140.64 12.1 143.09 12.13 145.75 12C145.75 13.76 145.79 15.33 145.7 16.88C145.69 17.1 145.01 17.43 144.63 17.45C143.61 17.51 142.57 17.33 141.56 17.45C141.02 17.51 140.3 17.85 140.05 18.29C139.22 19.77 139.68 20.43 141.34 20.42C142.49 20.42 143.63 20.42 144.78 20.4C145.47 20.38 145.78 20.61 145.75 21.36C145.7 22.5 145.7 23.65 145.77 24.79C145.82 25.58 145.42 25.75 144.78 25.74C143.6 25.72 142.4 25.74 141.23 25.64C140.21 25.54 139.88 25.77 139.89 26.9C139.96 32.34 139.92 37.79 139.92 43.38V43.4Z" fill="black"/>
    <path d="M101.41 43.36H95.07C95.07 41.83 95.07 40.38 95.07 38.93C95.05 33.08 95.05 27.23 94.99 21.38C94.99 20.68 95.25 20.44 95.86 20.44C97.44 20.44 99.03 20.39 100.6 20.47C100.88 20.48 101.37 21.01 101.37 21.31C101.41 28.62 101.4 35.93 101.4 43.35L101.41 43.36Z" fill="black"/>
    <path d="M98.39 17.81C96.2 17.83 94.66 16.37 94.64 14.26C94.62 12.28 96.22 10.77 98.34 10.77C100.22 10.77 101.97 12.48 101.96 14.3C101.95 16.27 100.39 17.8 98.39 17.81Z" fill="black"/>
    <path d="M27.2 53.2C21.47 53.2 15.73 53.04 10 53.25C4.84001 53.43 1.29001 49.18 1.35001 44.79C1.48001 34.83 1.38001 24.87 1.38001 14.92C1.38001 12.87 1.35001 10.81 1.46001 8.76C1.69001 4.66 4.92001 1.56 9.04001 1.44C11.41 1.37 13.79 1.42 16.16 1.42C25.81 1.42 35.46 1.43 45.11 1.42C48.83 1.42 51.32 3.24 52.69 6.6C53.07 7.52 53.22 8.6 53.22 9.6C53.24 21.65 53.24 33.7 53.18 45.76C53.16 49.68 49.9 53 45.95 53.14C42.12 53.27 38.28 53.18 34.44 53.18C32.03 53.18 29.62 53.18 27.2 53.18V53.21V53.2ZM47.17 20.45C47.16 20.35 47.14 20.25 47.13 20.16C45.85 20.16 44.57 20.22 43.29 20.14C42.34 20.08 41.61 20.34 40.94 20.99C39.63 22.25 38.3 23.48 36.96 24.72C36.36 25.27 35.75 25.8 34.93 26.53C34.98 25.95 34.99 25.69 35.03 25.44C35.58 22.49 36.15 19.55 36.7 16.61C36.8 16.07 37.02 15.45 36.08 15.46C34.46 15.48 32.84 15.5 31.22 15.51C30.51 15.51 30.08 15.76 30.17 16.56C30.2 16.83 30.17 17.12 30.12 17.39C29.15 22.94 28.17 28.5 27.19 34.05C26.9 35.7 26.62 37.35 26.31 39.12C28.44 39.12 30.37 39.15 32.29 39.09C32.53 39.09 32.93 38.64 32.97 38.35C33.5 35.28 33.97 32.2 34.46 29.12C34.58 28.39 34.72 27.67 34.85 26.94C35.34 27.34 35.56 27.75 35.74 28.17C36.84 30.74 37.91 33.33 39.04 35.89C39.23 36.32 39.64 36.93 39.99 36.96C41.42 37.08 42.86 37.01 44.41 37.01C44.31 36.64 44.28 36.45 44.21 36.28C42.96 33.52 41.73 30.74 40.42 28C40.05 27.23 40.24 26.81 40.81 26.29C42.94 24.36 45.04 22.39 47.15 20.44L47.17 20.45ZM7.84001 31.68L7.80001 31.97C8.71001 32.3 9.62001 32.64 10.53 32.94C11.43 33.24 12.35 33.45 13.23 33.78C16.67 35.06 20.09 36.35 23.52 37.66C24.2 37.92 24.56 37.79 24.69 37.05C24.91 35.81 25.19 34.58 25.39 33.33C25.67 31.64 25.66 31.63 23.86 31.62C18.88 31.6 13.91 31.59 8.93001 31.58C8.56001 31.58 8.19001 31.64 7.82001 31.67L7.84001 31.68ZM10.64 16.57C10.61 16.67 10.59 16.78 10.56 16.88C11.94 17.33 13.34 17.74 14.7 18.24C18.47 19.63 22.24 21.03 26 22.47C26.95 22.84 27.52 22.89 27.63 21.6C27.74 20.31 28.05 19.03 28.27 17.75C28.42 16.88 28.13 16.58 27.2 16.59C22.03 16.6 16.85 16.55 11.67 16.52C11.33 16.52 10.98 16.55 10.64 16.57ZM9.29001 24.18C14.9 26.13 20.32 28.71 26.03 30.37C26.41 28.2 26.74 26.28 27.1 24.18H9.29001Z" fill="white"/>
    <path d="M47.17 20.45C45.06 22.4 42.96 24.37 40.83 26.3C40.26 26.82 40.07 27.23 40.44 28.01C41.75 30.75 42.98 33.52 44.23 36.29C44.31 36.46 44.33 36.65 44.43 37.02C42.88 37.02 41.44 37.09 40.01 36.97C39.66 36.94 39.25 36.33 39.06 35.9C37.93 33.34 36.86 30.75 35.76 28.18C35.58 27.76 35.35 27.35 34.87 26.95C34.74 27.68 34.6 28.4 34.48 29.13C33.99 32.21 33.51 35.29 32.99 38.36C32.94 38.65 32.55 39.09 32.31 39.1C30.38 39.16 28.45 39.13 26.33 39.13C26.64 37.35 26.92 35.7 27.21 34.06C28.19 28.51 29.17 22.95 30.14 17.4C30.19 17.13 30.22 16.84 30.19 16.57C30.1 15.77 30.52 15.52 31.24 15.52C32.86 15.52 34.48 15.49 36.1 15.47C37.04 15.46 36.83 16.08 36.72 16.62C36.17 19.57 35.6 22.51 35.05 25.45C35 25.7 35 25.96 34.95 26.54C35.77 25.81 36.39 25.28 36.98 24.73C38.31 23.49 39.65 22.26 40.96 21C41.63 20.35 42.36 20.09 43.31 20.15C44.58 20.23 45.87 20.17 47.15 20.17C47.16 20.27 47.18 20.37 47.19 20.46L47.17 20.45Z" fill="black"/>
    <path d="M7.84001 31.68C8.21001 31.65 8.58001 31.59 8.95001 31.59C13.93 31.59 18.9 31.61 23.88 31.63C25.67 31.63 25.69 31.64 25.41 33.34C25.2 34.58 24.93 35.82 24.71 37.06C24.58 37.8 24.21 37.93 23.54 37.67C20.12 36.36 16.69 35.06 13.25 33.79C12.37 33.46 11.44 33.25 10.55 32.95C9.63001 32.64 8.73001 32.3 7.82001 31.98L7.86001 31.69L7.84001 31.68Z" fill="black"/>
    <path d="M10.65 16.57C10.99 16.55 11.34 16.52 11.68 16.52C16.86 16.55 22.03 16.6 27.21 16.59C28.14 16.59 28.44 16.89 28.28 17.75C28.05 19.03 27.74 20.3 27.64 21.6C27.53 22.88 26.97 22.83 26.01 22.47C22.26 21.03 18.49 19.63 14.71 18.24C13.35 17.74 11.95 17.33 10.57 16.88C10.6 16.78 10.62 16.67 10.65 16.57Z" fill="black"/>
    <path d="M9.28999 24.18H27.1C26.74 26.28 26.4 28.2 26.03 30.37C20.32 28.71 14.9 26.13 9.28999 24.18Z" fill="black"/>
  </g>
  <defs>
    <clipPath id="clip0_839_4707">
      <rect width="145.77" height="54.57" fill="white"/>
    </clipPath>
  </defs>
</svg>